<svg width="70" height="70" viewBox="0 0 70 70" fill="none" xmlns="http://www.w3.org/2000/svg">
<path d="M65.8824 56.2745C63.6074 56.2745 61.7647 54.4319 61.7647 52.1569V8.23529H17.8431C15.5681 8.23529 13.7255 6.39265 13.7255 4.11765C13.7255 1.84265 15.5681 0 17.8431 0H65.8824C68.1574 0 70 1.84265 70 4.11765V52.1569C70 54.4319 68.1574 56.2745 65.8824 56.2745Z" fill="white"/>
<path d="M52.1569 70H4.11765C1.84265 70 0 68.1574 0 65.8824V17.8431C0 15.5681 1.84265 13.7255 4.11765 13.7255H52.1569C54.4319 13.7255 56.2745 15.5681 56.2745 17.8431V65.8824C56.2745 68.1574 54.4319 70 52.1569 70ZM8.23529 61.7647H48.0392V21.9608H8.23529V61.7647Z" fill="white"/>
</svg>
