<svg width="83" height="94" viewBox="0 0 83 94" fill="none" xmlns="http://www.w3.org/2000/svg">
<path d="M45.7676 5.31693H36.4425V15.43H45.7676V5.31693Z" fill="#FF8F04"/>
<path d="M47.5476 0H34.6379C33.6074 0 32.772 0.8354 32.772 1.86592V5.88308C32.772 6.91359 33.6074 7.74899 34.6379 7.74899H47.5476C48.5781 7.74899 49.4135 6.91359 49.4135 5.88308V1.86592C49.4135 0.8354 48.5781 0 47.5476 0Z" fill="#FDC005"/>
<path d="M60.1328 10.2926L56.7098 15.8198L61.8077 18.9769L65.2307 13.4497L60.1328 10.2926Z" fill="#FF8F04"/>
<path d="M59.2922 7.16222L57.933 9.35692C57.5841 9.92044 57.758 10.6602 58.3215 11.0092L65.3773 15.3788C65.9408 15.7278 66.6805 15.5539 67.0295 14.9904L68.3887 12.7957C68.7377 12.2321 68.5638 11.4924 68.0002 11.1434L60.9445 6.77377C60.381 6.42478 59.6412 6.5987 59.2922 7.16222Z" fill="#FDC005"/>
<path d="M22.0535 10.3012L25.4764 15.8284L20.3786 18.9855L16.9556 13.4583L22.0535 10.3012Z" fill="#FF8F04"/>
<path d="M22.8945 7.17082L24.2537 9.36552C24.6027 9.92904 24.4288 10.6688 23.8653 11.0178L16.8095 15.3874C16.246 15.7364 15.5063 15.5625 15.1573 14.999L13.7981 12.8043C13.4491 12.2407 13.623 11.501 14.1865 11.152L21.2423 6.78238C21.8058 6.43339 22.5456 6.6073 22.8945 7.17082Z" fill="#FDC005"/>
<path d="M41.1146 93.1067C63.8216 93.1067 82.2293 74.699 82.2293 51.992C82.2293 29.285 63.8216 10.8773 41.1146 10.8773C18.4076 10.8773 -0.00012207 29.285 -0.00012207 51.992C-0.00012207 74.699 18.4076 93.1067 41.1146 93.1067Z" fill="#266F26"/>
<path d="M41.1146 93.1067C63.8216 93.1067 82.2293 74.699 82.2293 51.992C82.2293 29.285 63.8216 10.8773 41.1146 10.8773C18.4076 10.8773 -0.00012207 29.285 -0.00012207 51.992C-0.00012207 74.699 18.4076 93.1067 41.1146 93.1067Z" fill="url(#paint0_linear_75_207)"/>
<path d="M41.115 13.5573C19.9004 13.5573 2.70254 30.7551 2.70254 51.9697C2.70254 73.1843 19.9004 90.3822 41.115 90.3822C62.3296 90.3822 79.5275 73.1843 79.5275 51.9697C79.5275 30.7551 62.3296 13.5573 41.115 13.5573Z" fill="#37C170"/>
<path d="M41.115 13.5573C19.9004 13.5573 2.70254 30.7551 2.70254 51.9697C2.70254 73.1843 19.9004 90.3822 41.115 90.3822C62.3296 90.3822 79.5275 73.1843 79.5275 51.9697C79.5275 30.7551 62.3296 13.5573 41.115 13.5573Z" fill="url(#paint1_linear_75_207)"/>
<path d="M41.1147 87.7881C60.9272 87.7881 76.9885 71.7269 76.9885 51.9143C76.9885 32.1018 60.9272 16.0405 41.1147 16.0405C21.3021 16.0405 5.24084 32.1018 5.24084 51.9143C5.24084 71.7269 21.3021 87.7881 41.1147 87.7881Z" fill="white"/>
<path d="M64.4761 66.2507C64.5353 65.4806 65.2546 64.9475 65.8751 65.286C67.2009 66.0024 68.5012 66.7668 69.7931 67.5425C70.219 67.7964 70.2952 68.3859 70.0357 68.8034C69.7734 69.2265 69.2346 69.3788 68.7551 69.1137C67.7312 68.5467 66.7185 67.9515 65.7031 67.3677C65.4661 67.2323 65.201 67.1251 65.0035 66.9417C64.7948 66.7499 64.651 66.4848 64.4761 66.2535V66.2507Z" fill="#EDEDED"/>
<path d="M42.0623 82.391C42.0623 83.0764 42.068 83.7619 42.0623 84.4473C42.0567 85.0509 41.6731 85.4712 41.1343 85.4769C40.5702 85.4825 40.1612 85.0566 40.1583 84.4417C40.1555 83.0708 40.1583 81.6999 40.164 80.3262C40.1668 79.6831 40.5419 79.2798 41.1146 79.2798C41.6872 79.2798 42.0539 79.6803 42.0595 80.3319C42.0651 81.0173 42.0595 81.7028 42.0595 82.3882L42.0623 82.391Z" fill="#EDEDED"/>
<path d="M71.4408 53.0072C70.7554 53.0072 70.0699 53.0128 69.3817 53.0072C68.7245 52.9987 68.338 52.6405 68.3408 52.0538C68.3408 51.4981 68.7245 51.1258 69.3563 51.1202C70.7441 51.106 72.1319 51.106 73.5168 51.1173C74.1148 51.123 74.5295 51.5376 74.5238 52.0764C74.5182 52.6208 74.1092 52.9987 73.4971 53.0044C72.8117 53.0128 72.1262 53.0044 71.438 53.0044L71.4408 53.0072Z" fill="#EDEDED"/>
<path d="M27.9699 76.5797C27.936 76.6644 27.8824 76.8703 27.7809 77.0508C27.1124 78.2299 26.4382 79.4033 25.7584 80.5739C25.451 81.1042 24.9066 81.2762 24.444 81.0139C23.9362 80.729 23.7896 80.1874 24.0998 79.6402C24.7825 78.4358 25.4735 77.237 26.1702 76.041C26.4382 75.584 26.8895 75.3979 27.3324 75.5558C27.7442 75.7025 27.9727 76.0015 27.9699 76.5826V76.5797Z" fill="#EDEDED"/>
<path d="M55.4159 75.5082C55.5485 75.6154 55.8842 75.7762 56.0478 76.0442C56.7642 77.212 57.4384 78.4051 58.1154 79.5983C58.4369 80.1652 58.31 80.7125 57.8333 80.9945C57.3312 81.2907 56.7981 81.1243 56.454 80.5348C55.7601 79.3529 55.0718 78.1654 54.4005 76.9694C54.0056 76.267 54.4428 75.5054 55.4188 75.5082H55.4159Z" fill="#EDEDED"/>
<path d="M10.7918 52.9965C10.1064 52.9965 9.42096 53.0022 8.7327 52.9965C8.10368 52.9881 7.72571 52.6299 7.72571 52.0657C7.72571 51.5044 8.10932 51.1292 8.73552 51.1236C10.1064 51.1095 11.4801 51.1095 12.8509 51.1151C13.4574 51.1151 13.8805 51.5128 13.889 52.046C13.8974 52.6214 13.5053 52.9881 12.8481 52.9965C12.1627 53.005 11.4773 52.9965 10.789 52.9965H10.7918Z" fill="#EDEDED"/>
<path d="M13.0735 69.2379C12.5432 69.2013 12.2413 68.9869 12.1059 68.5581C11.9734 68.1379 12.1342 67.7091 12.5488 67.4637C13.6235 66.829 14.7066 66.2113 15.787 65.5879C15.9449 65.4977 16.1029 65.4046 16.2665 65.3228C16.7686 65.0746 17.3073 65.2353 17.5612 65.7036C17.801 66.1492 17.6599 66.6824 17.1832 66.9673C16.3342 67.475 15.4739 67.9601 14.6164 68.4566C14.2751 68.654 13.9366 68.8628 13.5868 69.0461C13.4035 69.142 13.1947 69.1928 13.0706 69.2379H13.0735Z" fill="#EDEDED"/>
<path d="M42.046 21.7595C42.046 22.445 42.0516 23.1304 42.046 23.813C42.0404 24.411 41.6624 24.82 41.1067 24.8369C40.6131 24.8538 40.1787 24.4279 40.1731 23.8525C40.1589 22.4534 40.1589 21.0515 40.1731 19.6525C40.1787 19.0798 40.5962 18.6765 41.1152 18.6821C41.6709 18.6878 42.0347 19.0855 42.0404 19.7032C42.046 20.3887 42.0404 21.0741 42.0404 21.7567H42.0432L42.046 21.7595Z" fill="#EDEDED"/>
<path d="M65.61 38.9124C65.0797 38.9124 64.7666 38.715 64.6199 38.2862C64.4676 37.8377 64.6199 37.4146 65.0599 37.1523C65.9625 36.6135 66.8793 36.0973 67.7904 35.5727C68.1063 35.3893 68.4194 35.1975 68.7438 35.0283C69.2318 34.7744 69.762 34.9126 70.0244 35.3442C70.3064 35.8068 70.188 36.3484 69.6859 36.6474C68.4532 37.3779 67.2065 38.0859 65.9625 38.7968C65.8356 38.8701 65.6777 38.8898 65.61 38.9124Z" fill="#EDEDED"/>
<path d="M58.3156 23.9457C58.2394 24.1516 58.1971 24.3321 58.1097 24.4845C57.4327 25.6748 56.7586 26.8623 56.0647 28.0414C55.7346 28.6055 55.2015 28.7578 54.7136 28.4758C54.2453 28.205 54.1212 27.669 54.4343 27.1218C55.1197 25.9202 55.8052 24.7186 56.5188 23.5339C56.9109 22.8823 57.6217 22.8231 58.0617 23.3844C58.1858 23.5423 58.2338 23.7567 58.3156 23.9429V23.9457Z" fill="#EDEDED"/>
<path d="M16.5829 38.9007C16.5124 38.8725 16.3347 38.8301 16.1824 38.7427C14.9807 38.0545 13.7819 37.3634 12.5859 36.6638C12.1064 36.3818 11.9428 35.8092 12.1967 35.3663C12.4477 34.9319 12.9893 34.7627 13.4717 35.0335C14.7212 35.7302 15.9595 36.4466 17.1922 37.1744C17.6153 37.4226 17.7563 37.8514 17.6012 38.2745C17.4489 38.6891 17.147 38.9091 16.5857 38.9035L16.5829 38.9007Z" fill="#EDEDED"/>
<path d="M27.9563 27.5617C27.9648 28.0863 27.7222 28.4304 27.2878 28.5574C26.8534 28.6843 26.4867 28.5489 26.2611 28.1709C25.5221 26.9298 24.7915 25.6831 24.0807 24.425C23.8127 23.954 23.9876 23.3926 24.4163 23.1501C24.8564 22.899 25.3951 23.0175 25.68 23.4942C26.4162 24.7184 27.1242 25.9595 27.835 27.1978C27.9084 27.3247 27.9281 27.4827 27.9535 27.5588L27.9563 27.5617Z" fill="#EDEDED"/>
<defs>
<linearGradient id="paint0_linear_75_207" x1="44.1886" y1="92.0103" x2="44.1886" y2="19.6485" gradientUnits="userSpaceOnUse">
<stop stop-color="#FE8D03"/>
<stop offset="1" stop-color="#FCBF04"/>
</linearGradient>
<linearGradient id="paint1_linear_75_207" x1="38.243" y1="14.5816" x2="38.243" y2="82.1875" gradientUnits="userSpaceOnUse">
<stop stop-color="#FE8D03"/>
<stop offset="1" stop-color="#FCBF04"/>
</linearGradient>
</defs>
</svg>
