<svg width="66" height="66" viewBox="0 0 66 66" fill="none" xmlns="http://www.w3.org/2000/svg">
<path fill-rule="evenodd" clip-rule="evenodd" d="M52.2261 18.2782C55.6619 22.6047 57.7201 28.1054 57.7241 34.0937H66L55.3339 44.922L54.9484 45.3134L50.897 41.2004L43.8968 34.0937H52.1855C52.1855 29.3579 50.5325 25.0135 47.7811 21.6215C44.2336 17.2482 38.8593 14.4591 32.8451 14.4591C28.6578 14.4591 24.781 15.8111 21.6143 18.1086L17.7313 14.1109C21.9308 10.8295 27.1665 8.86566 32.858 8.86566C40.6848 8.86566 47.6681 12.5378 52.2261 18.2782ZM33.142 52.6611C37.328 52.6611 41.1818 51.3376 44.3593 49.0996L44.3857 49.1263L48.2687 53.0159C44.0692 56.2087 38.8335 58.1194 33.142 58.1194C25.3152 58.1194 18.3326 54.5458 13.7739 48.9613C10.3381 44.7517 8.27992 39.3996 8.27586 33.5732H0L10.6668 23.0375L11.0523 22.6567L15.1037 26.6585L22.1039 33.5732H13.8152C13.8152 38.181 15.4682 42.408 18.2196 45.7084C21.7671 49.954 27.1353 52.6611 33.142 52.6611Z" fill="white"/>
</svg>
