<svg width="21" height="21" viewBox="0 0 21 21" fill="none" xmlns="http://www.w3.org/2000/svg">
<path d="M10.6669 20.3345C16.1897 20.3345 20.6669 16.0481 20.6669 10.7605C20.6669 5.47291 16.1897 1.18648 10.6669 1.18648C5.14402 1.18648 0.66687 5.47291 0.66687 10.7605C0.66687 16.0481 5.14402 20.3345 10.6669 20.3345Z" fill="#F78701"/>
<path d="M10.6669 19.4825C16.1898 19.4825 20.6669 15.1961 20.6669 9.90852C20.6669 4.62094 16.1898 0.334508 10.6669 0.334508C5.14408 0.334508 0.666931 4.62094 0.666931 9.90852C0.666931 15.1961 5.14408 19.4825 10.6669 19.4825Z" fill="#FFD900"/>
<path d="M10.667 17.7997C15.2191 17.7997 18.9094 14.2667 18.9094 9.90848C18.9094 5.55029 15.2191 2.01727 10.667 2.01727C6.11493 2.01727 2.42471 5.55029 2.42471 9.90848C2.42471 14.2667 6.11493 17.7997 10.667 17.7997Z" fill="#FFA300"/>
<path d="M10.667 2.72396C15.0954 2.72396 18.7076 6.06794 18.9007 10.2623C18.9061 10.1454 18.9094 10.0274 18.9094 9.90898C18.9094 5.55079 15.2191 2.01777 10.667 2.01777C6.11493 2.01777 2.42471 5.55027 2.42471 9.90846C2.42471 10.0269 2.42794 10.1444 2.43332 10.2618C2.62647 6.06742 6.23867 2.72344 10.667 2.72344V2.72396Z" fill="#F78701"/>
<path d="M9.06109 5.83874C8.46067 5.83874 7.96247 6.23279 7.8199 6.76539C7.80375 6.76539 7.79192 6.76179 7.77578 6.76179C7.06722 6.76179 6.49047 7.31345 6.49047 7.99234C6.49047 8.08454 6.50231 8.1752 6.52437 8.26174C5.93793 8.4925 5.52636 9.0421 5.52636 9.68442C5.52636 9.92651 5.59038 10.1516 5.69314 10.3556C5.21108 10.6209 4.88397 11.1133 4.88397 11.684C4.88397 12.3243 5.2934 12.8739 5.87606 13.1046C5.85777 13.1932 5.84809 13.2834 5.84809 13.3756C5.84809 14.1405 6.49478 14.7596 7.29372 14.7596C7.37604 14.7596 7.4562 14.7498 7.53475 14.7364C7.72736 15.2845 8.2616 15.6822 8.90022 15.6822C9.69917 15.6822 10.3459 15.063 10.3459 14.2981V7.06981C10.3459 6.39144 9.76964 5.83926 9.06055 5.83926L9.06109 5.83874ZM16.4501 11.683C16.4501 11.1123 16.123 10.6198 15.641 10.3546C15.7453 10.1506 15.8077 9.926 15.8077 9.68339C15.8077 9.04107 15.3962 8.49147 14.8097 8.26071C14.8296 8.17417 14.8436 8.08403 14.8436 7.99131C14.8436 7.31294 14.2674 6.76076 13.5583 6.76076C13.5422 6.76076 13.5282 6.76436 13.5142 6.76436C13.3716 6.23176 12.8734 5.83771 12.273 5.83771C11.5644 5.83771 10.9877 6.38732 10.9877 7.06827V14.2966C10.9877 15.0615 11.6344 15.6806 12.4333 15.6806C13.072 15.6806 13.6062 15.2824 13.7988 14.7349C13.8774 14.7483 13.9575 14.7581 14.0398 14.7581C14.8388 14.7581 15.4855 14.1389 15.4855 13.374C15.4855 13.2818 15.4752 13.1912 15.4575 13.1031C16.0396 12.8723 16.4496 12.3227 16.4496 11.6825L16.4501 11.683Z" fill="#F78701"/>
<path d="M9.06109 4.98732C8.46067 4.98732 7.96247 5.38137 7.8199 5.91397C7.80375 5.91397 7.79192 5.91037 7.77578 5.91037C7.06722 5.91037 6.49047 6.46203 6.49047 7.14092C6.49047 7.23312 6.50231 7.32378 6.52437 7.41031C5.93793 7.64107 5.52636 8.19068 5.52636 8.833C5.52636 9.07509 5.59038 9.30019 5.69314 9.50416C5.21108 9.76943 4.88397 10.2619 4.88397 10.8326C4.88397 11.4728 5.2934 12.0224 5.87606 12.2532C5.85777 12.3418 5.84809 12.4319 5.84809 12.5241C5.84809 13.2891 6.49478 13.9082 7.29372 13.9082C7.37604 13.9082 7.4562 13.8984 7.53475 13.885C7.72736 14.4331 8.2616 14.8307 8.90022 14.8307C9.69917 14.8307 10.3459 14.2116 10.3459 13.4467V6.21736C10.3459 5.53898 9.76964 4.98681 9.06055 4.98681L9.06109 4.98732ZM16.4501 10.8316C16.4501 10.2608 16.123 9.7684 15.641 9.50313C15.7453 9.29915 15.8077 9.07457 15.8077 8.83197C15.8077 8.18965 15.3962 7.64004 14.8097 7.40928C14.8296 7.32275 14.8436 7.23261 14.8436 7.13989C14.8436 6.46151 14.2674 5.90934 13.5583 5.90934C13.5422 5.90934 13.5282 5.91294 13.5142 5.91294C13.3716 5.38034 12.8734 4.98629 12.273 4.98629C11.5644 4.98629 10.9877 5.53589 10.9877 6.21684V13.4451C10.9877 14.21 11.6344 14.8292 12.4333 14.8292C13.072 14.8292 13.6062 14.431 13.7988 13.8835C13.8774 13.8969 13.9575 13.9067 14.0398 13.9067C14.8388 13.9067 15.4855 13.2875 15.4855 12.5226C15.4855 12.4304 15.4752 12.3397 15.4575 12.2517C16.0396 12.0209 16.4496 11.4713 16.4496 10.831L16.4501 10.8316Z" fill="#FFD900"/>
</svg>
