<svg width="18" height="21" viewBox="0 0 18 21" fill="none" xmlns="http://www.w3.org/2000/svg">
<path d="M16.0145 8.10034L17.1924 6.9519C17.3806 6.76831 17.3806 6.47143 17.1924 6.28784L16.0586 5.18237C15.8703 4.99878 15.5658 4.99878 15.3776 5.18237L14.2759 6.25659C13.1541 5.35815 11.784 4.74097 10.2817 4.5144V3.16675H11.4034C11.6678 3.16675 11.8842 2.95581 11.8842 2.698V1.1355C11.8842 0.877686 11.6678 0.666748 11.4034 0.666748H6.59603C6.33162 0.666748 6.11529 0.877686 6.11529 1.1355V2.698C6.11529 2.95581 6.33162 3.16675 6.59603 3.16675H7.71776V4.5144C3.72361 5.11206 0.666901 8.47925 0.666901 12.5417C0.666901 17.03 4.39664 20.6667 8.99973 20.6667C13.6028 20.6667 17.3326 17.03 17.3326 12.5417C17.3326 10.9089 16.8398 9.3894 15.9905 8.12378L16.0145 8.10034ZM13.2555 17.3554C12.1153 18.3191 10.6278 18.9027 9.00013 18.9027C5.41101 18.9027 2.50093 16.0656 2.50093 12.5656H9.00013V6.22847C12.5893 6.22847 15.4993 9.06557 15.4993 12.5656C15.4993 14.4785 14.63 16.1933 13.2555 17.3554Z" fill="white"/>
</svg>
