<svg width="61" height="60" viewBox="0 0 61 60" fill="none" xmlns="http://www.w3.org/2000/svg">
<path d="M46.424 4.88806L41.8231 11.962C44.5261 13.7161 46.7978 16.074 48.4656 18.8346C50.4498 22.084 51.5713 25.9085 51.5713 29.9918C51.5713 41.8967 41.9093 51.5586 30.0045 51.5586C25.7199 51.5586 21.6941 50.2933 18.3297 48.1366L17.9846 48.683L13.7575 55.2105C27.6178 64.1536 46.1364 60.214 55.137 46.3825C64.195 32.5223 60.2842 13.9461 46.424 4.88806Z" fill="#FDC901"/>
<path d="M41.4204 12.5946L18.3583 48.1367C21.7227 50.2933 25.7198 51.5586 30.0331 51.5586C41.938 51.5586 51.5999 41.8967 51.5999 29.9918C51.5999 25.9085 50.4497 22.084 48.4943 18.8346C46.6252 16.2753 44.2097 14.1474 41.4204 12.5946Z" fill="#F7A201"/>
<path d="M41.8232 11.9621C38.43 9.74787 34.3755 8.42511 30.0046 8.42511C18.0997 8.42511 8.43781 18.087 8.43781 29.9919C8.43781 34.7078 9.96186 39.0499 12.5211 42.5869C10.537 39.3375 9.4155 35.513 9.4155 31.4297C9.4155 19.5248 19.0774 9.8629 30.9823 9.8629C34.778 9.8629 38.3437 10.8406 41.4206 12.5659C44.2099 14.1187 46.5966 16.2467 48.4657 18.8347C46.7979 16.1029 44.5262 13.7449 41.8232 11.9621Z" fill="#F78701"/>
<path d="M46.3952 4.85931C32.535 -4.16998 13.9301 -0.259205 4.87201 13.6298C-4.18604 27.5188 -0.246504 46.095 13.6425 55.153C13.6713 55.1818 13.7288 55.2105 13.7575 55.2393L18.0134 48.683L18.3584 48.1366C16.0867 46.6701 14.1026 44.801 12.521 42.6155C9.96177 39.0786 8.43772 34.7077 8.43772 30.0206C8.43772 18.1157 18.0996 8.45377 30.0045 8.45377C34.3754 8.45377 38.4299 9.74778 41.8231 11.9907L46.3952 4.85931C46.424 4.88807 46.3952 4.88807 46.3952 4.85931Z" fill="#FFDD5F"/>
<path d="M18.3589 48.1366L41.421 12.5945C38.3153 10.8692 34.7784 9.89148 30.9826 9.89148C19.0778 9.89148 9.41586 19.5534 9.41586 31.4583C9.41586 35.5416 10.5661 39.3661 12.5215 42.6155C14.103 44.8009 16.0872 46.67 18.3589 48.1366Z" fill="#FEBA2B"/>
<path d="M20.9562 36.7915L20.5287 36.4626V38.4689C20.5945 38.5675 20.6602 38.6662 20.7589 38.7649L20.7918 38.7978L20.8247 38.8307L20.8576 38.8635L20.8905 38.8964L20.9234 38.9293C21.0878 39.1267 21.3509 39.3569 21.6469 39.6529C21.9429 39.9489 22.3047 40.2778 22.7651 40.5738C23.4887 41.1 24.2452 41.5276 25.0674 41.9222C25.8896 42.284 26.7118 42.58 27.5998 42.7773V43.468V45.1454C27.5998 45.6058 27.8301 45.8689 28.3234 45.8689H31.415C31.9412 45.8689 32.2043 45.6387 32.2043 45.1454V43.5338V42.8431C33.2568 42.6458 34.2435 42.3498 35.0986 41.9222C35.9866 41.4947 36.743 40.9356 37.4008 40.2778C38.0586 39.62 38.5519 38.8635 38.9137 38.0084C39.2426 37.252 39.407 36.4298 39.4399 35.5746C39.4399 35.476 39.4399 35.3444 39.4399 35.2457C39.4399 34.1275 39.2426 33.1737 38.8479 32.3844C38.4533 31.595 37.8941 30.9373 37.1706 30.3453C36.447 29.7861 35.5919 29.2928 34.6381 28.8652C33.6514 28.4377 32.599 28.043 31.415 27.6812C30.823 27.4839 30.2968 27.3195 29.8363 27.155C29.3759 26.9906 29.0141 26.7932 28.6852 26.6288C28.3892 26.4315 28.159 26.2341 27.9945 26.0039C27.8958 25.8723 27.8301 25.7079 27.7972 25.5763C27.7643 25.4777 27.7643 25.3461 27.7643 25.2474C27.7643 24.9514 27.8301 24.6883 27.9616 24.491C28.0932 24.2937 28.2905 24.0963 28.5536 23.9977C28.7839 23.8661 29.0799 23.7674 29.4088 23.7017C29.7376 23.6359 30.0665 23.603 30.4283 23.603C30.7901 23.603 31.119 23.6688 31.4808 23.7674C31.8097 23.8661 32.1385 23.9977 32.4674 24.1621C32.7634 24.3265 33.0594 24.491 33.3226 24.6883C33.5857 24.8857 33.8488 25.083 34.0461 25.2474L34.2106 25.379C34.375 25.5106 34.5066 25.6092 34.6381 25.7079C34.7697 25.8066 34.9012 25.8394 35.0657 25.8394C35.263 25.8394 35.4275 25.7408 35.6248 25.5763L38.1573 22.9452C38.2888 22.7808 38.4204 22.6492 38.4862 22.5505L38.4533 20.5443L36.8746 21.0705C36.5457 20.8403 36.1839 20.6101 35.8221 20.4127C35.2301 20.1167 34.671 19.8536 34.079 19.6563C33.487 19.459 32.895 19.2945 32.2701 19.1958V18.3736V16.8936C32.2701 16.6634 32.1714 16.4989 32.007 16.3674C31.8097 16.2358 31.6452 16.17 31.4808 16.17H28.3892C28.159 16.17 27.9616 16.2358 27.8301 16.3674C27.6985 16.4989 27.6327 16.6634 27.6327 16.8607V18.4065V19.0972C26.679 19.2945 25.8238 19.5576 25.0674 19.9523C24.3109 20.347 23.6532 20.8074 23.1269 21.3665C22.6007 21.9256 22.206 22.5505 21.91 23.2412C21.6798 23.8332 21.5154 24.491 21.4825 25.2146C21.4825 25.3132 21.4825 25.4448 21.4825 25.5434C21.4825 26.4972 21.6469 27.3523 21.9758 28.1088C22.3047 28.8652 22.798 29.5888 23.4558 30.2137C24.1136 30.8715 24.9358 31.4306 25.9225 31.9568C26.9092 32.4831 28.0603 32.9764 29.3759 33.4039C29.6719 33.5026 30.0336 33.6342 30.4283 33.7657C30.823 33.8973 31.2177 34.0946 31.6123 34.292C31.9741 34.4893 32.303 34.7195 32.5661 34.9826C32.7634 35.18 32.8621 35.3773 32.9279 35.6075C32.9608 35.7062 32.9608 35.772 32.9608 35.8706C32.9608 36.1666 32.9279 36.4626 32.8292 36.7258C32.7306 36.9889 32.5661 37.2191 32.3688 37.4493C32.1385 37.6466 31.8425 37.8111 31.4808 37.9426C31.0861 38.0742 30.6256 38.14 30.0665 38.14C29.4745 38.14 28.8825 38.0413 28.3234 37.844C27.7643 37.6466 27.2052 37.3506 26.6461 36.9889C26.2843 36.7257 25.9554 36.4955 25.6594 36.2324C25.3634 35.9693 25.1332 35.772 24.9358 35.6404C24.7714 35.5089 24.6398 35.4102 24.5412 35.3444C24.4425 35.2786 24.3438 35.2457 24.2123 35.2457C24.0807 35.2457 23.8834 35.3115 23.6532 35.476L20.9562 36.7915Z" fill="#F78701"/>
<path d="M38.9138 30.3123C38.5191 29.523 37.96 28.8652 37.2365 28.2732C36.5129 27.7141 35.6578 27.2208 34.704 26.7932C33.7173 26.3656 32.6649 25.971 31.4809 25.6092C30.8888 25.4119 30.3626 25.2474 29.9022 25.083C29.4417 24.9185 29.0799 24.7212 28.7511 24.5567C28.4551 24.3594 28.2248 24.1621 28.0604 23.9318C27.9617 23.8003 27.8959 23.6358 27.863 23.5043C27.8302 23.4056 27.8302 23.2741 27.8302 23.1754C27.8302 22.8794 27.8959 22.6163 28.0275 22.4189C28.1591 22.2216 28.3564 22.0243 28.6195 21.9256C28.8497 21.7941 29.1457 21.6954 29.4746 21.6296C29.8035 21.5638 30.1324 21.5309 30.4942 21.5309C30.856 21.5309 31.1848 21.5967 31.5466 21.6954C31.8755 21.7941 32.2044 21.9256 32.5333 22.0901C32.8293 22.2545 33.1253 22.4189 33.3884 22.6163C33.6515 22.8136 33.9146 23.0109 34.112 23.1754L34.2764 23.307C34.4409 23.4385 34.5724 23.5372 34.704 23.6358C34.8355 23.7345 34.9671 23.7674 35.1315 23.7674C35.3289 23.7674 35.4933 23.6687 35.6907 23.5043L38.2231 20.8732C38.3547 20.7087 38.4862 20.5772 38.552 20.4785C38.5191 20.4127 38.4862 20.3469 38.4205 20.2812C38.256 20.0838 38.0587 19.8865 37.8285 19.6563C37.5653 19.426 37.2693 19.2287 36.9404 18.9985C36.6116 18.7683 36.2498 18.538 35.888 18.3407C35.296 18.0447 34.7369 17.7816 34.1449 17.5842C33.5529 17.3869 32.9609 17.2225 32.336 17.1238V16.4331V14.9531C32.336 14.7229 32.2373 14.5584 32.0729 14.4269C31.8755 14.2953 31.7111 14.2296 31.5466 14.2296H28.4551C28.2248 14.2296 28.0275 14.2953 27.8959 14.4269C27.7644 14.5584 27.6986 14.7229 27.6986 14.9202V16.466V17.1567C26.7448 17.354 25.8897 17.6171 25.1333 18.0118C24.3768 18.4065 23.719 18.8669 23.1928 19.426C22.6666 19.9851 22.2719 20.61 21.9759 21.3007C21.7457 21.8927 21.5812 22.5505 21.5483 23.2741C21.5483 23.3727 21.5483 23.5043 21.5483 23.603C21.5483 24.5567 21.7128 25.4119 22.0417 26.1683C22.3706 26.9248 22.8639 27.6483 23.5217 28.2732C24.1795 28.931 25.0017 29.4901 25.9884 30.0163C26.975 30.5426 28.1262 31.0359 29.4417 31.4635C29.7377 31.5621 30.0995 31.6937 30.4942 31.8252C30.8888 31.9568 31.2835 32.1541 31.6782 32.3515C32.04 32.5488 32.3689 32.779 32.632 33.0421C32.8293 33.2395 32.928 33.4368 32.9938 33.667C33.0266 33.7657 33.0266 33.8315 33.0266 33.9301C33.0266 34.2261 32.9938 34.5221 32.8951 34.7853C32.7964 35.0484 32.632 35.2786 32.4346 35.5088C32.2044 35.7062 31.9084 35.8706 31.5466 36.0022C31.152 36.1337 30.6915 36.1995 30.1324 36.1995C29.5404 36.1995 28.9484 36.1008 28.3893 35.9035C27.8302 35.7062 27.271 35.4102 26.7119 35.0484C26.3501 34.7853 26.0213 34.555 25.7253 34.2919C25.4293 34.0288 25.199 33.8315 25.0017 33.6999C24.8372 33.5684 24.7057 33.4697 24.607 33.4039C24.5084 33.3381 24.4097 33.3052 24.2781 33.3052C24.1466 33.3052 23.9492 33.371 23.719 33.5355L20.8577 36.1995C20.759 36.2982 20.6603 36.3968 20.6274 36.4626C20.6932 36.5613 20.759 36.6599 20.8577 36.7586L20.8906 36.7915L20.9234 36.8244L20.9563 36.8573L20.9892 36.8902L21.0221 36.9231C21.1866 37.1204 21.4497 37.3506 21.7457 37.6466C22.0417 37.9426 22.4035 38.2715 22.8639 38.5675C23.5875 39.0937 24.3439 39.5213 25.1661 39.916C25.9884 40.2777 26.8106 40.5737 27.6986 40.7711V41.4618V43.1391C27.6986 43.5995 27.9288 43.8627 28.4222 43.8627H31.5137C32.04 43.8627 32.3031 43.6324 32.3031 43.1391V41.5275V40.8369C33.3555 40.6395 34.3422 40.3435 35.1973 39.916C36.0853 39.4884 36.8418 38.9293 37.4996 38.2715C38.1573 37.6137 38.6507 36.8573 39.0125 36.0022C39.3414 35.2457 39.5058 34.4235 39.5387 33.5684C39.5387 33.4697 39.5387 33.3381 39.5387 33.2395C39.5058 32.0555 39.3085 31.1017 38.9138 30.3123Z" fill="#FCDE5C"/>
</svg>
