<svg width="24" height="25" viewBox="0 0 24 25" fill="none" xmlns="http://www.w3.org/2000/svg">
<circle cx="12" cy="12.6666" r="12" fill="white" fill-opacity="0.5"/>
<path fill-rule="evenodd" clip-rule="evenodd" d="M7.64328 17.0644C8.0338 17.4549 8.66697 17.4549 9.05749 17.0644L11.9881 14.1338L14.9187 17.0644C15.3092 17.4549 15.9423 17.4549 16.3329 17.0644L16.3737 17.0235C16.7643 16.633 16.7643 15.9998 16.3737 15.6093L13.4432 12.6787L16.3739 9.74799C16.7644 9.35746 16.7644 8.7243 16.3739 8.33378L16.333 8.29289C15.9424 7.90237 15.3093 7.90237 14.9188 8.29289L11.9881 11.2236L9.05738 8.2929C8.66686 7.90238 8.0337 7.90238 7.64317 8.2929L7.60229 8.33378C7.21176 8.72431 7.21177 9.35747 7.60229 9.748L10.533 12.6787L7.6024 15.6093C7.21187 15.9998 7.21187 16.6329 7.6024 17.0235L7.64328 17.0644Z" fill="#266F27"/>
</svg>
