<svg width="18" height="23" viewBox="0 0 18 23" fill="none" xmlns="http://www.w3.org/2000/svg">
<path d="M4.91735 22.2608C4.54188 22.0975 4.3184 21.6984 4.38097 21.2902L5.57207 12.2928H1.25427C0.753655 12.311 0.351375 11.9118 0.333496 11.4129C0.333496 11.3313 0.333496 11.2587 0.360315 11.1771L3.04218 0.698665C3.14052 0.281404 3.50704 -0.00886413 3.93614 0.00020676H12.8757C13.1439 0.00020676 13.4031 0.127199 13.573 0.33583C13.7428 0.553531 13.8143 0.834728 13.7518 1.10686L12.2052 6.85028H16.4515C16.7912 6.85028 17.1041 7.04984 17.2561 7.35825C17.3902 7.65759 17.3455 8.00228 17.1577 8.26534L5.97221 21.9342C5.8113 22.1701 5.55205 22.3243 5.26599 22.3333C5.14977 22.3333 5.02462 22.3061 4.91735 22.2608Z" fill="black"/>
<path d="M4.91735 22.2608C4.54188 22.0975 4.3184 21.6984 4.38097 21.2902L5.57207 12.2928H1.25427C0.753655 12.311 0.351375 11.9118 0.333496 11.4129C0.333496 11.3313 0.333496 11.2587 0.360315 11.1771L3.04218 0.698665C3.14052 0.281404 3.50704 -0.00886413 3.93614 0.00020676H12.8757C13.1439 0.00020676 13.4031 0.127199 13.573 0.33583C13.7428 0.553531 13.8143 0.834728 13.7518 1.10686L12.2052 6.85028H16.4515C16.7912 6.85028 17.1041 7.04984 17.2561 7.35825C17.3902 7.65759 17.3455 8.00228 17.1577 8.26534L5.97221 21.9342C5.8113 22.1701 5.55205 22.3243 5.26599 22.3333C5.14977 22.3333 5.02462 22.3061 4.91735 22.2608Z" fill="url(#paint0_linear_62_53)"/>
<defs>
<linearGradient id="paint0_linear_62_53" x1="9.46901" y1="22.0356" x2="9.46901" y2="2.38222" gradientUnits="userSpaceOnUse">
<stop stop-color="#FE8D03"/>
<stop offset="1" stop-color="#FCBF04"/>
</linearGradient>
</defs>
</svg>
