<svg width="60" height="60" viewBox="0 0 60 60" fill="none" xmlns="http://www.w3.org/2000/svg">
<path d="M59.1922 2.26523C59.0516 1.60664 58.4071 0.961875 57.7508 0.815391C53.9774 0.00976173 51.036 0 48.0946 0C36.0008 0 28.7469 6.47461 23.3211 15H11.1172C9.19886 15 6.943 16.3945 6.09339 18.1055L0.292957 29.6719C0.117176 30.0703 0.0146484 30.4922 0 30.9375C0 32.4902 1.25977 33.75 2.70703 33.75H14.8828L12.3524 36.3867C11.0188 37.7203 10.9344 40.166 12.3524 41.6895L18.3137 47.6508C19.6168 48.9551 22.0778 49.1895 23.6164 47.6508L26.2532 45.0141L26.1453 57.1875C26.1453 58.7402 27.4051 60 28.8524 60C29.2918 59.9854 29.7092 59.8828 30.1051 59.707L41.6727 53.9203C43.386 53.0561 44.7817 50.8148 44.7817 48.8953L44.7892 36.6492C53.2853 31.2293 59.6837 23.9461 59.6837 11.9227C60.0125 8.96484 60.0125 6.03047 59.1922 2.26523ZM44.8953 19.6875C42.4227 19.6875 40.3133 17.5922 40.3133 15C40.3133 12.4078 42.3172 10.3125 44.8953 10.3125C47.4875 10.3125 49.4774 12.4078 49.4774 15C49.4774 17.5922 47.5907 19.6875 44.8953 19.6875Z" fill="white"/>
</svg>
