<svg width="70" height="60" viewBox="0 0 70 60" fill="none" xmlns="http://www.w3.org/2000/svg">
<path fill-rule="evenodd" clip-rule="evenodd" d="M56.5421 25.9196C55.8706 27.424 55.3046 28.6919 55.0238 29.5381H55.0498C58.9986 30.2566 69.2864 32.4893 69.2864 37.7759C69.2864 40.0856 67.4678 41.9846 65.0258 41.9846H54.4003C51.7764 39.7519 48.581 38.0069 45.2817 36.7237C46.7365 32.6433 48.0095 27.3824 48.0095 20.9923C48.0095 13.8837 44.3984 7.59624 38.9168 3.79812C41.2289 1.46279 44.4503 0 48.0095 0C55.0498 0 60.7652 5.64585 60.7652 12.6005C60.7652 16.4593 58.2943 21.9946 56.5421 25.9196ZM35.2091 41.2972C35.2187 41.2726 35.2362 41.232 35.2537 41.2147C37.0722 37.9812 40.8132 31.2318 40.8132 20.9666C40.8132 13.3191 34.5263 7.10864 26.7585 7.10864C18.9908 7.10864 12.7298 13.3191 12.7298 20.9666C12.7298 31.2062 16.4708 37.9555 18.2893 41.1891C18.2893 41.2283 18.3196 41.2525 18.3455 41.2732C18.3535 41.2796 18.3611 41.2857 18.3673 41.2917C11.5347 42.4209 0 46.6039 0 54.5338C0 57.1771 2.13029 60 5.53356 60H48.0094C51.4387 60 53.543 57.1514 53.543 54.5338C53.543 46.6168 42.0715 42.4344 35.2091 41.2972Z" fill="#9AAA9F"/>
</svg>
