<svg width="59" height="60" viewBox="0 0 59 60" fill="none" xmlns="http://www.w3.org/2000/svg">
<path d="M56.8376 23.3965L32.4963 1.27637C31.5989 0.455337 30.4266 0 29.2102 0C27.9939 0 26.8216 0.455337 25.9242 1.27637L1.58284 23.3965C1.08446 23.8525 0.686421 24.4072 0.414032 25.0253C0.141642 25.6434 0.000863852 26.3114 0.000649205 26.9869V55.0098C-0.0191418 56.2372 0.414166 57.4288 1.21772 58.3568C1.67377 58.8754 2.23558 59.2903 2.86536 59.5737C3.49515 59.8571 4.17831 60.0024 4.86891 59.9998H19.4737C20.1193 59.9998 20.7384 59.7434 21.1949 59.2869C21.6514 58.8304 21.9078 58.2113 21.9078 57.5657V42.9609C21.9078 42.3153 22.1643 41.6962 22.6208 41.2397C23.0773 40.7832 23.6964 40.5268 24.342 40.5268H34.0785C34.7241 40.5268 35.3432 40.7832 35.7997 41.2397C36.2562 41.6962 36.5126 42.3153 36.5126 42.9609V57.5657C36.5126 58.2113 36.7691 58.8304 37.2256 59.2869C37.6821 59.7434 38.3012 59.9998 38.9468 59.9998H53.5516C54.359 60.0069 55.1549 59.808 55.864 59.4217C56.6356 59.0015 57.28 58.3815 57.7296 57.6268C58.1793 56.872 58.4177 56.0101 58.4198 55.1315V26.9869C58.4196 26.3114 58.2788 25.6434 58.0064 25.0253C57.7341 24.4072 57.336 23.8525 56.8376 23.3965Z" fill="#9AAA9F"/>
</svg>
