<svg width="67" height="60" viewBox="0 0 67 60" fill="none" xmlns="http://www.w3.org/2000/svg">
<path fill-rule="evenodd" clip-rule="evenodd" d="M31.836 27.0645L31.7838 27.0254C27.1218 23.5284 22.4771 20.0444 17.8193 16.5511V16.5532C17.5817 16.7497 17.3484 16.9425 17.1179 17.1329L17.1167 17.1339C16.6755 17.4983 16.245 17.854 15.8154 18.2107C13.1814 20.3958 10.5475 22.5815 7.91353 24.7672L7.90768 24.772L7.87964 24.7953C5.25309 26.9749 2.62655 29.1544 0 31.3334V18.8351C4.74331 14.9323 9.48001 11.036 14.2226 7.13487L18.0994 3.94582L24.7275 8.91645C29.1445 12.2289 33.5564 15.5376 37.974 18.8501C42.4421 15.1531 46.8613 11.498 51.3405 7.79332L51.3433 7.79097L52.7756 6.60631C51.7347 5.56839 50.7071 4.54432 49.6719 3.51266L49.66 3.50079L49.6245 3.46542C48.4846 2.32941 47.3351 1.1838 46.1479 0H66.9677V20.4947C65.9228 19.5012 64.8774 18.5077 63.8272 17.5096C62.5624 16.3076 61.2907 15.0989 60.0043 13.8756C56.1209 17.2869 52.2538 20.6833 48.3914 24.0755C45.2365 26.8464 42.0847 29.6145 38.93 32.3857L31.836 27.0645ZM35.1895 35.9615C35.7348 36.3657 35.9016 36.7913 35.9016 37.4436L35.9038 37.4457C35.8884 43.4583 35.8894 49.4723 35.8904 55.4854V55.4895V55.4896C35.8907 56.9931 35.8909 58.4966 35.8909 60H20.5311V25.0351C20.6687 25.1308 20.7906 25.2136 20.9018 25.2891L20.9019 25.2892C21.0863 25.4143 21.2415 25.5197 21.3908 25.6318C22.6231 26.5555 23.855 27.4804 25.0869 28.4054C28.4496 30.9301 31.8132 33.4555 35.1895 35.9615ZM56.3985 23.9208C56.2868 24.0094 56.1905 24.0843 56.1047 24.1509L56.1046 24.151C55.944 24.2757 55.8205 24.3716 55.7035 24.4748C54.4918 25.5383 53.2807 26.6022 52.0696 27.6661C48.5781 30.7334 45.0869 33.8003 41.5841 36.8554C41.1542 37.2318 41.0023 37.6104 41.0045 38.1664C41.0167 44.121 41.0161 50.0742 41.0154 56.0283V56.0285L41.0152 59.9978H56.4007V23.9208H56.3985ZM14.0335 26.3533C14.483 25.982 14.9446 25.6007 15.424 25.2041V60H0.03213C0.03213 58.583 0.0323867 57.1659 0.0326433 55.7487C0.0336699 50.0798 0.0346966 44.4101 0.0192981 38.7418C0.0192981 38.1729 0.196807 37.8115 0.633092 37.4543C3.29959 35.261 5.95555 33.0548 8.61136 30.8487C9.54475 30.0733 10.4781 29.298 11.4119 28.5233C12.2673 27.8123 13.1256 27.1033 14.0335 26.3533Z" fill="white"/>
</svg>
