<svg width="50" height="60" viewBox="0 0 50 60" fill="none" xmlns="http://www.w3.org/2000/svg">
<path d="M31.1404 43.2204C31.6856 43.4488 32.0297 43.5798 32.3648 43.7351C33.9912 44.4965 34.9232 45.7666 34.9506 47.5697C34.9963 50.3413 35.0024 53.1159 34.9506 55.8875C34.9079 58.1444 33.1201 59.9414 30.8632 59.9657C26.5718 60.0114 22.2804 60.0114 17.989 59.9657C15.723 59.9414 13.9534 58.1353 13.8834 55.7535C13.8042 53.0581 13.8133 50.3596 13.8803 47.6641C13.9382 45.4103 15.1595 44.1219 17.9829 43.2387C17.6479 42.8336 17.3677 42.4559 17.0509 42.1178C11.797 36.5259 6.56146 30.9187 1.26496 25.3664C0.162407 24.209 -0.184804 23.0638 0.0893102 21.4679C1.73095 11.9317 7.14319 5.65756 15.9331 1.71031C21.4977 -0.787182 26.8551 -0.266364 32.2064 1.4636C42.239 4.7012 47.636 11.9866 49.2868 22.2384C49.4573 23.3014 49.1162 24.1237 48.3731 24.9065C42.9365 30.6416 37.5334 36.401 32.1181 42.1574C31.8379 42.4559 31.5637 42.7635 31.1434 43.2234L31.1404 43.2204ZM21.1048 18.6841C20.9951 18.7267 20.8855 18.7694 20.7789 18.8151C18.3758 19.8384 17.2458 22.6192 18.123 25.077C18.4306 25.942 18.723 26.8101 19.0032 27.6872C20.5535 32.5665 22.0794 37.4518 23.6632 42.3158C23.7119 42.4681 23.8124 42.6021 23.9342 42.7331C24.3393 43.1595 25.049 43.1625 25.3962 42.6874C25.4419 42.6234 25.4784 42.5595 25.5028 42.4864C27.4551 36.465 29.4043 30.4406 31.2653 24.3887C31.978 22.077 31.0368 19.9998 28.8348 18.9978C28.6399 18.9095 28.4419 18.8272 28.2409 18.7511C25.9444 17.8831 23.4012 17.8191 21.1048 18.6871V18.6841ZM27.6135 43.2204C27.717 43.2965 27.8206 43.3757 27.9241 43.4519C28.2409 43.2295 28.5911 43.0468 28.8652 42.7788C29.4592 42.194 30.0135 41.5666 30.583 40.9574C35.8491 35.332 41.1029 29.7004 46.3933 24.0963C47.1456 23.2983 47.2096 22.6283 46.6675 21.6811C44.4014 17.7338 39.178 16.6435 35.5506 19.4151C34.4389 20.2648 33.848 21.4161 33.6074 22.7806C33.4308 23.7826 33.2815 24.7999 32.9831 25.7654C31.3353 31.0923 29.6419 36.4041 27.9728 41.7249C27.8206 42.2123 27.7292 42.7209 27.6104 43.2204H27.6135ZM21.5129 43.3331H21.5159C21.6164 43.2661 21.6682 43.1473 21.6438 43.0285C21.5677 42.6691 21.5037 42.3067 21.3941 41.9595C19.6794 36.6142 17.9403 31.2751 16.2468 25.9238C15.9514 24.9918 15.9453 23.9654 15.6225 23.0456C15.2296 21.9278 14.8824 20.6486 14.0966 19.8445C10.8833 16.5521 4.69443 17.5724 2.52893 21.6049C2.0538 22.4912 2.07512 23.1887 2.8 23.9562C8.663 30.1695 14.4956 36.4071 20.3494 42.6295C20.5961 42.8914 20.9007 43.0955 21.1931 43.3148C21.2875 43.3849 21.4154 43.394 21.5159 43.33L21.5129 43.3331Z" fill="#9AAA9F"/>
</svg>
