<svg width="240" height="239" viewBox="0 0 240 239" fill="none" xmlns="http://www.w3.org/2000/svg">
<path d="M65.3801 224.836C92.3358 238.769 124.607 242.428 155.808 232.494C187.015 222.56 211.234 200.919 225.172 173.964C239.111 147.008 242.764 114.731 232.83 83.53C222.896 52.3285 201.256 28.1101 174.3 14.1714H174.289C147.333 0.232822 115.068 -3.42051 83.8662 6.51371C52.6648 16.4479 28.4463 38.0827 14.5077 65.0439C0.569069 91.9996 -3.08427 124.271 6.84447 155.472C16.7787 186.674 38.4135 210.892 65.3691 224.831H65.3746L65.3801 224.836Z" fill="url(#paint0_linear_67_93)"/>
<path d="M6.02698 155.736C-3.65491 125.335 -0.912168 92.9815 13.7396 64.6435C28.3858 36.3219 53.1748 15.3948 83.5479 5.70738L83.6137 5.68544C114.014 -3.99096 146.362 -1.24822 174.7 13.4035C203.038 28.0553 223.971 52.8661 233.653 83.2612C243.335 113.673 240.592 146.021 225.94 174.359C211.288 202.697 186.483 223.629 156.083 233.311L156.022 233.328C125.638 242.988 93.3121 240.245 64.985 225.599C36.647 210.947 15.7089 186.131 6.03246 155.73L6.02698 155.736ZM84.1897 7.31463L84.1294 7.33657C54.1676 16.8758 29.7133 37.5068 15.2755 65.4389C0.832217 93.3655 -1.86664 125.247 7.67262 155.209C17.2119 185.171 37.8428 209.625 65.7749 224.068C93.707 238.512 125.589 241.21 155.545 231.666L155.605 231.649C185.54 222.099 209.972 201.474 224.404 173.563C238.842 145.637 241.541 113.755 232.007 83.8043C222.462 53.8261 201.832 29.3773 173.905 14.9395C145.989 0.507136 114.135 -2.19721 84.1897 7.31463Z" fill="url(#paint1_linear_67_93)"/>
<path d="M126.022 8.17035C126.516 9.72275 128.178 10.584 129.73 10.0903C131.283 9.59658 132.144 7.93448 131.65 6.38208C131.156 4.82969 129.489 3.96847 127.937 4.46216C126.384 4.95586 125.523 6.61796 126.022 8.17035Z" fill="#37C170"/>
<path d="M113.559 231.057C113.066 229.505 111.403 228.644 109.851 229.137C108.299 229.631 107.437 231.299 107.931 232.846C108.425 234.398 110.087 235.259 111.639 234.766C113.192 234.272 114.053 232.61 113.559 231.057Z" fill="#37C170"/>
<path d="M49.5653 32.8879C49.324 32.1364 48.8083 31.522 48.1062 31.16C46.658 30.414 44.8752 30.9845 44.1237 32.4272C43.7617 33.1293 43.6959 33.9302 43.9317 34.6817C44.1676 35.4332 44.6887 36.0476 45.3909 36.4096C46.839 37.1556 48.6218 36.5906 49.3733 35.1425C49.7354 34.4403 49.8012 33.6394 49.5653 32.8879Z" fill="#37C170"/>
<path d="M190.016 206.34C190.257 207.091 190.773 207.706 191.475 208.068C192.923 208.814 194.706 208.249 195.452 206.8C195.814 206.098 195.88 205.297 195.644 204.551C195.403 203.8 194.887 203.185 194.185 202.823C193.483 202.461 192.682 202.396 191.93 202.631C191.179 202.867 190.565 203.388 190.203 204.091C189.84 204.793 189.769 205.594 190.011 206.34H190.016Z" fill="#37C170"/>
<path d="M10.2676 109.674C9.77389 108.121 8.11178 107.26 6.55939 107.754C5.007 108.248 4.14578 109.915 4.63947 111.462C4.88083 112.214 5.39647 112.828 6.09861 113.19C6.80075 113.552 7.60163 113.618 8.35315 113.382C9.90554 112.888 10.7668 111.221 10.2731 109.674H10.2676Z" fill="#37C170"/>
<path d="M229.314 129.553C229.808 131.106 231.47 131.967 233.022 131.473C234.575 130.98 235.43 129.318 234.937 127.765C234.443 126.213 232.781 125.352 231.229 125.845C229.676 126.339 228.815 128.001 229.309 129.553H229.314Z" fill="#37C170"/>
<path d="M36.7733 191.759C36.532 191.008 36.0163 190.393 35.3142 190.031C34.6121 189.669 33.8167 189.604 33.0597 189.839C32.3081 190.081 31.6938 190.596 31.3317 191.299C30.9697 192.001 30.9039 192.802 31.1397 193.553C31.3811 194.305 31.8967 194.919 32.5989 195.281C34.047 196.027 35.8298 195.462 36.5759 194.014C36.9379 193.312 37.0037 192.511 36.7679 191.765L36.7733 191.759Z" fill="#37C170"/>
<path d="M204.262 49.2019C205.71 49.9479 207.493 49.3829 208.244 47.9347C208.606 47.2326 208.672 46.4317 208.436 45.6857C208.195 44.9342 207.679 44.3198 206.977 43.9578C205.529 43.2062 203.746 43.7767 203 45.2249C202.638 45.9271 202.567 46.7279 202.808 47.4794C203.05 48.231 203.565 48.8453 204.267 49.2074L204.262 49.2019Z" fill="#37C170"/>
<defs>
<linearGradient id="paint0_linear_67_93" x1="212.976" y1="198.306" x2="1.28036" y2="19.198" gradientUnits="userSpaceOnUse">
<stop stop-color="#008028"/>
<stop offset="0.05" stop-color="#00832B"/>
<stop offset="0.24" stop-color="#008F39"/>
<stop offset="0.3" stop-color="#009742"/>
<stop offset="0.4" stop-color="#009F4B"/>
<stop offset="0.53" stop-color="#00A24F"/>
<stop offset="0.54" stop-color="#009844"/>
<stop offset="0.56" stop-color="#008E38"/>
<stop offset="0.59" stop-color="#008831"/>
<stop offset="0.68" stop-color="#008730"/>
<stop offset="0.86" stop-color="#007519"/>
<stop offset="1" stop-color="#006B0C"/>
</linearGradient>
<linearGradient id="paint1_linear_67_93" x1="83.6083" y1="5.6898" x2="156.079" y2="233.319" gradientUnits="userSpaceOnUse">
<stop stop-color="#00AA56"/>
<stop offset="0.62" stop-color="#00791D"/>
<stop offset="0.98" stop-color="#006000"/>
</linearGradient>
</defs>
</svg>
